{"title":"Yasujiro Ozu - Ohayo [1959]","uid":5389181,"size":1384690070,"categoryP":"video","categoryS":"movies","magnet":"?xt=urn:btih:63b873d33d2214c8082a5d18189196386339fbcc&amp;dn=Yasujiro+Ozu+-+Ohayo+%5B1959%5D&amp;tr=udp%3A%2F%2Ftracker.openbittorrent.com%3A80&amp;tr=udp%3A%2F%2Fopen.demonii.com%3A1337&amp;tr=udp%3A%2F%2Ftracker.coppersurfer.tk%3A6969&amp;tr=udp%3A%2F%2Fexodus.desync.com%3A6969","seeders":7,"leechers":0,"uploader":"mfccorrea","files":5,"time":1266983649,"description":"Yasujiro Ozu's Ohayo (Good Morning) is a comedy about a pair of boys who bring much trouble to their family and community by refusing to do very basic activities. The boys desire a television, but their father refuses. They are so insistent that the father eventually commands them to be quiet. They take him quite literally and refuse to speak at all, not even a typical polite morning greeting. Their impoliteness begins to weigh down both the family and the town as it goes against the ordered social structure of Japanese culture. The film is a remake of Ozu's earlier 1932 silent film I Was Born, But... \n\n   General\n      Complete name : Ohayo.avi\n      Format : AVI\n      Format/Info : Audio Video Interleave\n      File size : 1.29 GiB\n      Duration : 1h 30mn\n      Overall bit rate : 2 046 Kbps\n      Writing application : VirtualDubMod 1.5.4.1 (build 2178/release)\n      Writing library : VirtualDubMod build 2178/release\n   Video #0\n      ID : 0\n      Format : MPEG-4 Visual\n      Format profile : AdvancedSimple@L5\n      Format settings, BVOP : Yes\n      Format settings, QPel : No\n      Format settings, GMC : No warppoints\n      Format settings, Matrix : Default (MPEG)\n      Codec ID : XVID\n      Codec ID/Hint : XviD\n      Duration : 1h 30mn\n      Bit rate : 1 941 Kbps\n      Width : 656 pixels\n      Height : 480 pixels\n      Display aspect ratio : 4:3\n      Frame rate : 25.000 fps\n      Resolution : 24 bits\n      Colorimetry : 4:2:0\n      Scan type : Progressive\n      Bits/(Pixel*Frame) : 0.247\n      Stream size : 1.22 GiB (95%)\n      Writing library : XviD 1.2.0.dev47 (UTC 2006-11-01)\n   Audio #1\n      ID : 1\n      Format : MPEG Audio\n      Format version : Version 1\n      Format profile : Layer 3\n      Codec ID : 55\n      Codec ID/Hint : MP3\n      Duration : 1h 30mn\n      Bit rate mode : Constant\n      Bit rate : 96.0 Kbps\n      Channel(s) : 2 channels\n      Sampling rate : 32.0 KHz\n      Resolution : 16 bits\n      Stream size : 61.9 MiB (5%)\n      Alignment : Aligned on interleaves\n      Interleave, duration : 40 ms (1.00 video frame)\n      Interleave, preload duration : 504 ms\n\nIMDB: tt0053134\n\nJapanese audio; English, French, Spanish and Portuguese subtitles\n\nPosted at KG by damascus\n\nYasujiro Ozu - Ohayo [1959]","torrent":{"xt":"urn:btih:63b873d33d2214c8082a5d18189196386339fbcc","amp;dn":"Yasujiro+Ozu+-+Ohayo+%5B1959%5D","amp;tr":["udp%3A%2F%2Ftracker.openbittorrent.com%3A80","udp%3A%2F%2Fopen.demonii.com%3A1337","udp%3A%2F%2Ftracker.coppersurfer.tk%3A6969","udp%3A%2F%2Fexodus.desync.com%3A6969"],"infoHash":"63b873d33d2214c8082a5d18189196386339fbcc","infoHashBuffer":{"type":"Buffer","data":[99,184,115,211,61,34,20,200,8,42,93,24,24,145,150,56,99,57,251,204]},"announce":[],"urlList":[]}}